<?xml version="1.0" encoding="utf-8" ?>
<svg xmlns="http://www.w3.org/2000/svg" xmlns:xlink="http://www.w3.org/1999/xlink" width="504" height="443">
	<path fill="#303C68" d="M244.913 29.3493Q249.8 29.26 254.686 29.4105Q259.571 29.561 264.444 29.951Q269.316 30.341 274.163 30.9695Q279.011 31.598 283.821 32.4635Q288.632 33.3291 293.395 34.4295Q298.157 35.53 302.86 36.8628Q307.562 38.1955 312.194 39.7574Q316.826 41.3192 321.375 43.1064Q325.925 44.8936 330.381 46.9017Q334.838 48.9099 339.19 51.1343Q343.543 53.3586 347.781 55.7938Q352.019 58.229 356.132 60.8692Q360.246 63.5093 364.225 66.3481Q368.204 69.1868 372.039 72.2173Q375.874 75.2479 379.556 78.4629Q383.238 81.6779 386.758 85.0696Q390.277 88.4613 393.626 92.0216Q396.975 95.5819 400.146 99.3022Q403.316 103.023 406.3 106.894Q409.284 110.765 412.075 114.778Q414.865 118.791 417.456 122.936Q420.046 127.082 422.43 131.349Q424.814 135.616 426.986 139.995Q429.157 144.374 431.112 148.854Q433.066 153.334 434.798 157.905Q436.53 162.476 438.036 167.126Q439.542 171.776 440.818 176.495Q442.094 181.213 443.137 185.988Q444.18 190.764 444.987 195.585Q445.795 200.405 446.365 205.26Q446.935 210.115 447.266 214.991Q447.597 219.868 447.689 224.755Q447.781 229.642 447.632 234.528Q447.484 239.413 447.096 244.286Q446.709 249.159 446.082 254.006Q445.456 258.854 444.593 263.665Q443.73 268.476 442.631 273.239Q441.533 278.002 440.203 282.705Q438.872 287.409 437.312 292.041Q435.753 296.673 433.968 301.224Q432.182 305.774 430.176 310.231Q428.17 314.689 425.948 319.042Q423.726 323.396 421.292 327.635Q418.859 331.874 416.221 335.989Q413.583 340.104 410.746 344.084Q407.909 348.065 404.88 351.901Q401.852 355.738 398.638 359.421Q395.425 363.104 392.035 366.625Q388.645 370.147 385.086 373.497Q381.527 376.848 377.809 380.02Q374.09 383.192 370.22 386.178Q366.35 389.164 362.338 391.957Q358.326 394.749 354.182 397.341Q350.039 399.934 345.772 402.319Q341.506 404.705 337.128 406.879Q332.75 409.053 328.271 411.009Q323.792 412.966 319.222 414.7Q314.652 416.434 310.002 417.942Q305.353 419.45 300.635 420.729Q295.917 422.007 291.142 423.052Q286.368 424.097 281.547 424.907Q276.727 425.717 271.872 426.289Q267.018 426.861 262.142 427.195Q257.265 427.528 252.378 427.622Q247.488 427.716 242.599 427.57Q237.711 427.424 232.835 427.038Q227.96 426.652 223.109 426.027Q218.258 425.402 213.444 424.54Q208.63 423.678 203.864 422.58Q199.097 421.483 194.391 420.153Q189.684 418.823 185.049 417.264Q180.413 415.704 175.86 413.919Q171.306 412.134 166.846 410.128Q162.386 408.122 158.029 405.899Q153.673 403.676 149.43 401.242Q145.188 398.808 141.071 396.168Q136.953 393.529 132.97 390.691Q128.987 387.852 125.148 384.822Q121.309 381.792 117.624 378.577Q113.938 375.362 110.415 371.97Q106.891 368.578 103.539 365.017Q100.186 361.456 97.0125 357.734Q93.8387 354.013 90.8514 350.141Q87.8641 346.268 85.0705 342.254Q82.2768 338.239 79.6836 334.093Q77.0904 329.946 74.7038 325.677Q72.3173 321.408 70.1431 317.027Q67.9689 312.646 66.0124 308.163Q64.0559 303.681 62.3218 299.108Q60.5876 294.535 59.08 289.882Q57.5724 285.229 56.295 280.508Q55.0176 275.787 53.9735 271.009Q52.9293 266.231 52.1209 261.408Q51.3126 256.584 50.7419 251.727Q50.1712 246.869 49.8397 241.99Q49.5081 237.11 49.4165 232.22Q49.3248 227.33 49.4733 222.441Q49.6217 217.553 50.01 212.677Q50.3982 207.802 51.0252 202.952Q51.6523 198.101 52.5166 193.287Q53.381 188.473 54.4806 183.708Q55.5802 178.942 56.9124 174.236Q58.2446 169.53 59.8061 164.896Q61.3677 160.261 63.1548 155.708Q64.942 151.155 66.9504 146.696Q68.9589 142.237 71.1838 137.881Q73.4087 133.526 75.8447 129.285Q78.2807 125.044 80.922 120.927Q83.5632 116.811 86.4033 112.829Q89.2434 108.848 92.2755 105.01Q95.3076 101.173 98.5244 97.4884Q101.741 93.8043 105.135 90.2826Q108.529 86.7608 112.091 83.4099Q115.654 80.0589 119.376 76.8869Q123.099 73.7148 126.973 70.7293Q130.847 67.7438 134.863 64.9521Q138.878 62.1603 143.026 59.569Q147.174 56.9777 151.444 54.5931Q155.714 52.2085 160.097 50.0364Q164.479 47.8643 168.962 45.9099Q173.445 43.9555 178.019 42.2234Q182.593 40.4914 187.246 38.986Q191.9 37.4806 196.621 36.2053Q201.343 34.9301 206.122 33.8882Q210.9 32.8463 215.724 32.0401Q220.548 31.234 225.406 30.6656Q230.264 30.0972 235.143 29.768Q240.023 29.4387 244.913 29.3493Z"/>
	<path fill="#EFDBD3" d="M240.206 41.748Q244.794 41.5415 249.387 41.5605Q253.98 41.5795 258.567 41.8238Q263.153 42.0682 267.722 42.5374Q272.291 43.0065 276.832 43.6994Q281.372 44.3922 285.873 45.3071Q290.374 46.222 294.825 47.3566Q299.275 48.4913 303.665 49.843Q308.054 51.1948 312.372 52.7603Q316.69 54.3258 320.926 56.1014Q325.162 57.877 329.306 59.8583Q333.45 61.8397 337.491 64.022Q341.532 66.2043 345.462 68.5824Q349.391 70.9604 353.199 73.5284Q357.007 76.0965 360.685 78.8483Q364.362 81.6001 367.9 84.5291Q371.438 87.4581 374.828 90.5572Q378.217 93.6563 381.451 96.9181Q384.685 100.18 387.754 103.596Q390.824 107.013 393.722 110.576Q396.621 114.139 399.341 117.84Q402.061 121.541 404.596 125.371Q407.131 129.201 409.475 133.151Q411.819 137.101 413.966 141.161Q416.113 145.221 418.059 149.382Q420.004 153.542 421.743 157.793Q423.482 162.045 425.01 166.376Q426.538 170.707 427.852 175.108Q429.166 179.509 430.262 183.97Q431.358 188.43 432.234 192.939Q433.11 197.447 433.763 201.994Q434.417 206.54 434.847 211.113Q435.276 215.686 435.481 220.274Q435.686 224.862 435.665 229.455Q435.644 234.048 435.398 238.635Q435.152 243.221 434.681 247.79Q434.21 252.359 433.516 256.899Q432.821 261.439 431.905 265.94Q430.988 270.44 429.852 274.89Q428.715 279.341 427.362 283.73Q426.008 288.119 424.441 292.436Q422.874 296.753 421.097 300.989Q419.32 305.224 417.337 309.367Q415.354 313.51 413.17 317.55Q410.986 321.591 408.607 325.519Q406.227 329.448 403.658 333.255Q401.088 337.062 398.335 340.738Q395.582 344.415 392.651 347.951Q389.721 351.488 386.621 354.877Q383.52 358.265 380.257 361.498Q376.994 364.73 373.577 367.799Q370.159 370.867 366.595 373.764Q363.031 376.661 359.329 379.38Q355.627 382.098 351.796 384.632Q347.965 387.165 344.014 389.508Q340.063 391.85 336.002 393.996Q331.941 396.142 327.78 398.086Q323.618 400.029 319.367 401.767Q315.115 403.504 310.783 405.03Q306.451 406.557 302.05 407.869Q297.648 409.181 293.187 410.276Q288.727 411.37 284.218 412.244Q279.709 413.118 275.162 413.77Q270.616 414.422 266.043 414.85Q261.47 415.278 256.881 415.481Q252.295 415.684 247.704 415.662Q243.113 415.639 238.529 415.392Q233.945 415.144 229.379 414.672Q224.812 414.2 220.274 413.504Q215.737 412.809 211.238 411.892Q206.74 410.974 202.292 409.837Q197.845 408.701 193.458 407.347Q189.071 405.993 184.756 404.426Q180.441 402.859 176.208 401.082Q171.975 399.305 167.835 397.322Q163.694 395.34 159.656 393.156Q155.617 390.973 151.691 388.594Q147.765 386.215 143.96 383.647Q140.155 381.078 136.48 378.326Q132.806 375.574 129.271 372.645Q125.736 369.716 122.349 366.617Q118.962 363.518 115.731 360.257Q112.5 356.996 109.433 353.58Q106.366 350.164 103.47 346.602Q100.574 343.039 97.8565 339.339Q95.1389 335.639 92.6061 331.811Q90.0733 327.982 87.7314 324.033Q85.3895 320.085 83.2441 316.026Q81.0987 311.967 79.155 307.808Q77.2113 303.649 75.474 299.4Q73.7366 295.151 72.2098 290.821Q70.6831 286.492 69.3705 282.093Q68.0579 277.693 66.9627 273.235Q65.8676 268.777 64.9924 264.27Q64.1172 259.764 63.4642 255.22Q62.8112 250.676 62.3818 246.105Q61.9525 241.534 61.7479 236.948Q61.5433 232.362 61.5639 227.771Q61.5845 223.18 61.8303 218.596Q62.0761 214.012 62.5465 209.445Q63.0168 204.879 63.7107 200.341Q64.4045 195.803 65.3201 191.304Q66.2357 186.806 67.3709 182.358Q68.5061 177.909 69.8581 173.522Q71.2101 169.135 72.7757 164.819Q74.3413 160.504 76.1168 156.27Q77.8922 152.037 79.8732 147.895Q81.8542 143.754 84.0359 139.715Q86.2177 135.676 88.5949 131.748Q90.9722 127.821 93.5392 124.015Q96.1063 120.209 98.857 116.534Q101.608 112.858 104.535 109.322Q107.463 105.786 110.561 102.398Q113.658 99.0098 116.918 95.7776Q120.178 92.5455 123.593 89.4771Q127.008 86.4088 130.569 83.5116Q134.13 80.6145 137.829 77.8955Q141.528 75.1766 145.356 72.6423Q149.184 70.1081 153.131 67.7647Q157.079 65.4213 161.137 63.2744Q165.195 61.1274 169.353 59.1821Q173.511 57.2369 177.76 55.4979Q182.008 53.759 186.337 52.2305Q190.666 50.7021 195.065 49.3878Q199.463 48.0736 203.921 46.9767Q208.379 45.8798 212.885 45.0029Q217.391 44.1261 221.935 43.4713Q226.479 42.8165 231.049 42.3854Q235.62 41.9544 240.206 41.748Z"/>
	<path fill="#303C68" d="M247.589 92.375Q248.419 92.3207 249.25 92.2986C260.735 91.9883 273.382 92.7804 284.235 96.8494C288.416 98.4169 292.713 100.815 296.063 103.79C298.004 105.515 299.856 107.491 302.032 108.913C304.773 110.704 308.037 111.875 310.942 113.411C315.405 115.771 319.653 118.583 323.802 121.452C326.915 123.605 329.99 125.895 332.803 128.432C335.627 130.978 338.336 133.834 341.397 136.083C346.085 139.528 349.997 141.015 354.559 145.358C358.862 149.454 361.68 154.385 362.829 160.238C363.307 162.671 363.597 165.214 364.45 167.551C366.078 172.01 368.57 176.217 370.308 180.669Q371.413 183.499 372.389 186.376Q373.365 189.253 374.21 192.172Q375.056 195.09 375.768 198.043Q376.481 200.997 377.059 203.979Q377.638 206.962 378.081 209.967Q378.525 212.973 378.832 215.996Q379.139 219.018 379.309 222.052Q379.48 225.085 379.513 228.123C380.154 261.682 365.98 295.298 342.758 319.305Q341.633 320.475 340.478 321.617Q339.324 322.759 338.142 323.872Q336.96 324.984 335.75 326.067Q334.54 327.15 333.304 328.203Q332.068 329.255 330.806 330.276Q329.544 331.298 328.256 332.287Q326.969 333.277 325.658 334.234Q324.346 335.191 323.011 336.115Q321.677 337.039 320.319 337.93Q318.961 338.82 317.582 339.677Q316.203 340.533 314.803 341.355Q313.402 342.177 311.982 342.963Q310.562 343.75 309.122 344.501Q307.683 345.252 306.225 345.966Q304.767 346.681 303.292 347.359Q301.817 348.038 300.325 348.679Q298.834 349.32 297.327 349.924Q295.82 350.528 294.298 351.094Q292.776 351.66 291.241 352.188Q289.706 352.716 288.158 353.206Q286.61 353.695 285.05 354.146Q283.49 354.597 281.92 355.009Q280.349 355.421 278.769 355.793Q277.189 356.166 275.6 356.499Q274.011 356.832 272.414 357.125Q270.817 357.418 269.213 357.672Q267.61 357.925 266 358.138Q264.391 358.352 262.776 358.525Q261.162 358.698 259.544 358.831Q257.926 358.964 256.305 359.056Q254.684 359.148 253.061 359.2Q251.439 359.252 249.815 359.264Q248.281 359.284 246.748 359.268Q245.214 359.253 243.681 359.201Q242.148 359.149 240.617 359.06Q239.086 358.972 237.557 358.848Q236.029 358.724 234.503 358.563Q232.978 358.403 231.457 358.207Q229.936 358.011 228.419 357.779Q226.903 357.547 225.393 357.279Q223.883 357.011 222.379 356.708Q220.876 356.405 219.38 356.066Q217.884 355.728 216.397 355.354Q214.909 354.98 213.431 354.571Q211.953 354.163 210.484 353.719Q209.016 353.276 207.559 352.798Q206.102 352.32 204.656 351.807Q203.21 351.295 201.777 350.749Q200.344 350.203 198.924 349.623Q197.504 349.043 196.098 348.43Q194.692 347.817 193.301 347.171Q191.91 346.524 190.535 345.846Q189.159 345.167 187.801 344.456Q186.442 343.745 185.1 343.002Q183.758 342.259 182.434 341.485Q181.11 340.711 179.805 339.905Q178.499 339.1 177.213 338.264Q175.927 337.428 174.661 336.562Q173.396 335.696 172.15 334.801Q170.905 333.905 169.682 332.98Q168.458 332.056 167.257 331.103Q166.055 330.149 164.876 329.168Q163.698 328.187 162.542 327.178Q161.387 326.169 160.256 325.133Q159.06 324.04 157.892 322.917Q156.724 321.795 155.583 320.644Q154.443 319.493 153.332 318.314Q152.221 317.135 151.139 315.929Q150.057 314.723 149.006 313.49Q147.955 312.258 146.934 311Q145.913 309.741 144.924 308.458Q143.935 307.175 142.978 305.868Q142.021 304.56 141.097 303.23Q140.173 301.899 139.282 300.546Q138.391 299.193 137.534 297.818Q136.677 296.443 135.854 295.048Q135.031 293.652 134.243 292.237Q133.455 290.821 132.703 289.386Q131.95 287.952 131.233 286.499Q130.516 285.046 129.836 283.576Q129.155 282.105 128.511 280.619Q127.867 279.132 127.26 277.63Q126.654 276.128 126.084 274.611Q125.515 273.094 124.983 271.564Q124.451 270.034 123.958 268.491Q123.464 266.947 123.009 265.393Q122.554 263.838 122.137 262.272Q121.721 260.706 121.343 259.131Q120.966 257.555 120.627 255.971Q120.289 254.387 119.99 252.794Q119.691 251.202 119.432 249.603Q119.172 248.004 118.952 246.399Q118.733 244.793 118.553 243.183Q118.373 241.573 118.233 239.959Q118.093 238.345 117.994 236.728Q117.894 235.111 117.834 233.492Q117.761 231.876 117.728 230.26Q117.696 228.643 117.704 227.025Q117.712 225.408 117.761 223.792Q117.809 222.175 117.899 220.561Q117.988 218.946 118.118 217.334Q118.248 215.722 118.418 214.114Q118.589 212.505 118.799 210.902Q119.01 209.299 119.261 207.701Q119.512 206.103 119.803 204.512Q120.094 202.922 120.425 201.339Q120.756 199.756 121.127 198.182Q121.498 196.607 121.908 195.043Q122.318 193.479 122.767 191.925Q123.217 190.372 123.705 188.83Q124.193 187.288 124.72 185.759Q125.247 184.23 125.812 182.715Q126.377 181.2 126.98 179.699Q127.583 178.198 128.224 176.713Q128.864 175.228 129.542 173.76Q130.22 172.292 130.934 170.841Q131.648 169.39 132.399 167.958Q133.15 166.525 133.936 165.112Q134.722 163.699 135.544 162.306Q136.366 160.913 137.222 159.541Q138.079 158.169 138.969 156.819Q139.86 155.47 140.784 154.142Q141.709 152.815 142.666 151.512Q143.623 150.209 144.613 148.93Q145.603 147.651 146.625 146.397Q147.646 145.144 148.699 143.916Q149.752 142.688 150.835 141.488Q151.919 140.287 153.032 139.114Q159.251 132.691 166.1 126.945C168.517 124.951 171.224 123.186 173.524 121.072C175.299 119.439 176.829 117.455 178.475 115.684C189.925 103.36 215.58 95.8938 231.78 93.5352C237.015 92.7731 242.31 92.5799 247.589 92.375Z"/>
	<path fill="#EFDBD3" d="M274.293 162.234C276.237 162.095 278.423 162.469 280.364 162.68C290.713 163.802 300.47 166.436 310 170.593C306.676 173.699 301.793 176.973 299.534 180.913C298.99 181.863 298.356 183.092 298.652 184.197C298.831 184.338 298.956 184.456 299.184 184.533C301.361 185.27 311.663 178.526 313.989 177.047C314.474 204.408 315.037 231.671 312.969 258.999C312.298 267.856 311.786 277.139 309.538 285.757C308.729 288.857 307.543 291.943 305.716 294.595C300.595 302.034 289.77 305.774 281.242 307.287C265.513 310.077 233.7 307.483 220.625 298.251C212.854 292.763 211.259 285.398 210.001 276.504C209.58 273.527 209.026 270.509 208.725 267.519C208.536 265.638 208.585 263.676 208.241 261.819C208.084 260.97 207.878 260.151 207.145 259.665L206.76 260.025C205.539 263.113 205.724 267.051 205.729 270.34C205.746 282.652 205.809 293.181 215.081 302.351C229.273 316.385 258.254 317.623 277.045 317.473C274.724 324.813 273.732 331.512 273.744 339.226C256.3 330.051 237.237 323.186 218.489 317.208C212.523 315.414 206.552 313.574 200.491 312.124C200.144 307.806 200.304 303.415 200.209 299.083C200.087 293.452 199.73 287.814 199.438 282.189C198.845 270.791 197.409 259.483 196.09 248.155C197.595 247.786 199.179 247.331 200.613 246.739Q201.167 246.506 201.708 246.246Q202.249 245.986 202.777 245.7Q203.305 245.414 203.818 245.102Q204.332 244.79 204.829 244.454Q205.327 244.117 205.807 243.757Q206.287 243.396 206.749 243.013Q207.211 242.629 207.654 242.223Q208.096 241.817 208.518 241.39Q208.941 240.963 209.341 240.516Q209.742 240.068 210.12 239.602Q210.499 239.136 210.853 238.651Q211.208 238.167 211.539 237.665Q211.87 237.164 212.176 236.647Q212.481 236.13 212.761 235.599Q213.041 235.068 213.295 234.524Q213.548 233.979 213.775 233.423C209.326 237.48 204.968 240.603 198.727 240.804C192.972 240.988 187.721 239.077 183.55 235.077C179.658 231.344 177.56 226.209 177.467 220.835Q177.449 219.872 177.525 218.912Q177.602 217.951 177.772 217.003Q177.943 216.055 178.205 215.129Q178.468 214.202 178.821 213.305Q179.173 212.409 179.612 211.551Q180.051 210.694 180.572 209.884Q181.093 209.074 181.691 208.319Q182.29 207.564 182.959 206.871C186.664 203.084 191.828 200.647 197.162 200.599C205.792 200.52 209.446 204.235 215.228 209.83C218.489 210.309 221.796 210.543 225.077 210.845C234.756 211.737 238.697 211.639 247.693 207.572C244.629 205.003 239.346 202.364 235.534 201.326C231.201 200.145 226.183 200.148 221.701 199.778L202.096 198.073C199.106 197.828 195.428 198.007 192.567 197.16C194.181 196.37 217.459 195.792 221.21 195.602C221.757 190.688 222.905 186.064 224.299 181.333C220.985 181.158 217.449 180 214.633 178.253C209.462 175.046 206.767 169.934 205.403 164.139C207.46 167.559 209.823 170.766 213.009 173.22C220.329 178.857 228.708 178.885 237.461 177.76C237.437 178.809 237.431 179.922 237.774 180.925C238.144 182.006 238.832 182.91 239.882 183.404C242.234 184.509 248.472 183.94 251.226 183.995Q258.096 184.087 264.93 184.793C268.657 185.169 272.493 185.769 276.236 185.852C276.832 185.865 277.251 185.791 277.804 185.576C278.053 185.307 278.262 185.202 278.295 184.816C278.343 184.25 278.118 183.805 277.784 183.369C277.167 182.564 276.331 182.054 275.41 181.661C274.042 181.078 272.589 180.806 271.161 180.418Q259.033 177.094 246.6 175.202C257.709 171.505 264.388 168.526 274.293 162.234Z"/>
	<path fill="#303C68" d="M289.157 209.107C290.077 209.934 292.077 216.987 293.028 218.73C295.18 222.677 297.729 226.583 301.004 229.688C302.514 231.119 304.184 232.351 305.68 233.804Q305.432 234.213 305.166 234.61C301.47 240.118 295.491 242.625 289.22 243.817C289.527 250.443 290.922 257.427 295.235 262.695C290.134 266.629 285.153 266.961 278.927 266.727C275.66 274.81 273.167 277.437 273.504 287.011C277.359 288.797 281.532 289.798 285.61 290.935C278.725 293.344 272.357 293.161 265.513 290.654C251.536 285.535 242.049 271.231 235.992 258.264C232.555 249.659 230.783 239.994 230.703 230.733C229.327 231.612 227.802 232.27 226.328 232.97C226.512 231.719 226.688 230.393 227.214 229.234C228.462 226.487 230.841 224.628 233.616 223.581C239.052 221.529 244.243 222.674 249.35 224.974C245.213 226.299 240.758 226.629 236.554 227.956C239.098 231.776 241.659 235.555 244.739 238.97C251.728 246.719 261.63 252.694 271.541 255.915C274.988 257.034 278.536 257.638 282.023 258.596C279.986 252.343 279.966 246.501 280.546 240.019C286.255 237.715 291.987 236.838 296.927 232.822C296.822 232.701 296.715 232.58 296.615 232.455C291.512 226.032 288.245 217.356 289.157 209.107Z"/>
	<path fill="#FEFEFE" d="M244.253 248.739C246.73 249.724 251.749 254.115 254.624 255.894C260.342 259.434 266.538 262.323 272.663 265.077C268.531 270.423 267.334 277.487 267.18 284.067C261.62 279.905 257.673 277.379 253.072 271.851C247.777 265.207 244.7 257.799 242.009 249.823C243.211 251.409 244.204 253.187 245.335 254.831C248.979 260.125 253.178 264.337 258.897 267.309C255.68 262.171 250.865 257.623 247.117 252.822C246.129 251.555 244.928 250.198 244.253 248.739Z"/>
	<path fill="#303C68" d="M265.035 193.801C266.634 193.675 268.067 193.584 269.595 194.211C272.303 195.323 274.169 197.723 275.291 200.354C277.208 204.844 277.382 210.854 275.531 215.393C274.625 217.615 273.081 219.684 270.773 220.568C268.066 221.605 265.125 220.826 262.612 219.641C262.131 219.303 261.625 218.961 261.186 218.568C259.548 217.099 258.431 214.941 258.298 212.739Q258.275 212.337 258.292 211.935Q258.308 211.533 258.364 211.134Q258.421 210.736 258.516 210.345Q258.611 209.953 258.744 209.574Q258.877 209.194 259.047 208.829Q259.216 208.464 259.421 208.117Q259.626 207.771 259.864 207.446Q260.102 207.122 260.371 206.822C262.719 204.167 265.733 203.623 269.075 203.454C268.283 201.278 267.364 199.044 265.193 197.894C263.701 197.105 262.339 197.181 260.787 197.679C260.305 197.833 260.328 197.73 259.893 197.522L259.9 197.164C260.854 195.682 263.434 194.477 265.035 193.801Z"/>
	<path fill="#FEFEFE" d="M265.825 206.279C266.251 206.231 266.707 206.166 267.136 206.196C267.77 206.241 268.186 206.626 268.594 207.062C267.902 207.91 265.98 208.197 264.89 208.536C263.705 209.785 263.319 211.045 262.841 212.655C262.668 213.014 262.563 212.982 262.216 213.149C261.877 213.039 261.551 213.047 261.375 212.707C260.927 211.839 261.195 210.498 261.568 209.643C262.367 207.813 264.053 206.922 265.825 206.279Z"/>
	<path fill="#303C68" d="M302.765 193.285C304.036 193.193 305.11 193.138 306.326 193.629C308.642 194.564 310.189 196.65 311.113 198.894C312.834 203.074 313.037 208.582 311.274 212.78C310.489 214.649 309.161 216.342 307.225 217.091C305.001 217.951 302.785 217.353 300.694 216.453C298.966 214.956 297.577 213.185 297.219 210.851Q297.161 210.47 297.143 210.086Q297.125 209.702 297.147 209.317Q297.168 208.933 297.229 208.553Q297.29 208.173 297.39 207.801Q297.489 207.429 297.627 207.07Q297.764 206.71 297.938 206.367Q298.112 206.023 298.32 205.699Q298.528 205.376 298.768 205.075C300.732 202.613 303.161 202.324 306.061 201.929C305.585 200.499 305.114 198.868 303.963 197.829C302.287 196.316 299.81 196.608 297.723 196.637C299.345 195.209 300.746 194.101 302.765 193.285Z"/>
	<path fill="#FEFEFE" d="M303.382 204.012C304.138 204.03 304.636 204.015 305.233 204.49C305.135 205.752 302.446 206.769 301.673 207.872C301.283 208.428 301.09 209.279 300.899 209.928C300.733 210.201 300.552 210.23 300.272 210.372C299.99 210.194 299.821 210.141 299.656 209.828C299.36 209.268 299.385 208.673 299.55 208.073C300.123 205.996 301.628 205.024 303.382 204.012Z"/>
	<path fill="#303C68" d="M197.162 211.549C199.881 211.337 202.198 211.344 204.696 212.563C207.716 214.037 210.161 216.653 211.246 219.852C212.164 222.557 212.118 225.639 210.816 228.214C209.441 230.934 207.255 232.331 204.447 233.256L204.515 233.041C204.552 232.922 204.586 232.801 204.624 232.682C205.09 231.197 205.283 229.91 204.975 228.36C204.476 225.849 202.83 224.237 200.798 222.864C197.327 221.654 194.967 222.411 191.625 223.429C193.258 221.521 195.036 219.812 197.603 219.295C200.89 218.634 203.479 220.267 206.06 222.025C205.136 220.403 204.233 218.843 202.906 217.515C199.738 214.347 195.599 213.733 191.299 213.727C193.222 212.905 195.12 212.032 197.162 211.549Z"/>
	<path fill="#FEFEFE" d="M166.585 232.451C168.693 237.361 171.461 241.12 175.716 244.372C178.946 246.374 182.205 247.726 185.875 248.674C186.974 248.822 188.078 248.953 189.171 249.139C189.429 252.031 189.962 254.917 190.413 257.784C190.734 260.45 190.836 263.392 191.406 266.002C191.883 270.631 192.405 275.286 192.576 279.938C192.882 283.245 192.975 286.598 193.085 289.918C193.479 296.19 193.306 302.566 193.263 308.85C190.556 308.462 187.81 307.956 185.088 307.726C180.488 310.559 176.237 315.401 172.622 319.364Q170.738 317.572 168.797 315.842C166.259 313.448 163.831 310.958 161.409 308.447C156.592 303.433 152.625 297.936 148.834 292.123C146.725 289.482 145.139 285.951 143.54 282.979C140.363 277.093 138.067 270.793 135.755 264.532C135.419 261.343 133.717 257.365 133.128 253.966Q131.945 248.939 131.28 243.818Q130.616 238.696 130.476 233.534C132.656 233.968 163.956 233.039 166.585 232.451Z"/>
	<path fill="#FEFEFE" d="M148.834 292.123Q162.425 283.977 175.824 275.518C178.25 274.002 189.478 266.461 191.406 266.002C191.883 270.631 192.405 275.286 192.576 279.938C192.882 283.245 192.975 286.598 193.085 289.918C193.479 296.19 193.306 302.566 193.263 308.85C190.556 308.462 187.81 307.956 185.088 307.726C180.488 310.559 176.237 315.401 172.622 319.364Q170.738 317.572 168.797 315.842C166.259 313.448 163.831 310.958 161.409 308.447C156.592 303.433 152.625 297.936 148.834 292.123Z"/>
	<path fill="#EFDBD3" d="M192.576 279.938C192.882 283.245 192.975 286.598 193.085 289.918C193.479 296.19 193.306 302.566 193.263 308.85C190.556 308.462 187.81 307.956 185.088 307.726C180.488 310.559 176.237 315.401 172.622 319.364Q170.738 317.572 168.797 315.842C166.259 313.448 163.831 310.958 161.409 308.447L182.212 288.927C185.102 286.216 187.997 282.962 191.147 280.585C191.573 280.263 192.061 280.067 192.576 279.938Z"/>
	<path fill="#FEFEFE" d="M168.797 315.842Q176.852 307.153 185.014 298.563C187.708 295.71 190.559 292.917 193.085 289.918C193.479 296.19 193.306 302.566 193.263 308.85C190.556 308.462 187.81 307.956 185.088 307.726C180.488 310.559 176.237 315.401 172.622 319.364Q170.738 317.572 168.797 315.842Z"/>
	<path fill="#FEFEFE" d="M166.585 232.451C168.693 237.361 171.461 241.12 175.716 244.372C173.75 245.276 168.442 245.941 166.002 246.495L144.579 251.451C140.777 252.313 136.905 253.01 133.128 253.966Q131.945 248.939 131.28 243.818Q130.616 238.696 130.476 233.534C132.656 233.968 163.956 233.039 166.585 232.451Z"/>
	<path fill="#EFDBD3" d="M190.413 257.784C190.734 260.45 190.836 263.392 191.406 266.002C189.478 266.461 178.25 274.002 175.824 275.518Q162.425 283.977 148.834 292.123C146.725 289.482 145.139 285.951 143.54 282.979C145.536 281.549 148.35 280.537 150.555 279.393L166.392 271.03C171.741 268.222 177.01 265.246 182.341 262.4C184.771 261.102 187.233 259.606 189.788 258.591C190.235 258.414 190.21 258.202 190.413 257.784Z"/>
	<path fill="#EFDBD3" d="M175.716 244.372C178.946 246.374 182.205 247.726 185.875 248.674C183.03 250.669 177.679 251.525 174.245 252.565L150.607 259.801C145.69 261.288 140.478 262.525 135.755 264.532C135.419 261.343 133.717 257.365 133.128 253.966C136.905 253.01 140.777 252.313 144.579 251.451L166.002 246.495C168.442 245.941 173.75 245.276 175.716 244.372Z"/>
	<path fill="#FEFEFE" d="M358.634 185.378C359.586 187.792 360.372 190.261 361.177 192.727Q362.733 197.825 363.955 203.013C365.464 209.601 366.216 216.339 366.599 223.081C367.022 226.557 367.212 230.441 366.836 233.926C366.502 240.63 365.756 247.372 364.231 253.918C363.351 257.369 362.414 260.786 361.463 264.217C359.383 270.603 356.934 277.318 353.545 283.134C352.009 285.989 350.349 289.864 348.183 292.264C347.826 291.576 323.339 276.475 320.732 275.016C320.005 274.609 319.254 274.298 318.463 274.043C318.77 271.156 318.885 268.163 319.392 265.31C319.633 260.833 319.99 256.319 320.441 251.858C320.594 249.422 320.72 246.981 320.998 244.555C320.951 240.519 321.4 236.285 321.738 232.259C321.788 229.279 321.989 226.279 322.159 223.303C322.309 219.691 322.366 216.043 322.723 212.445C322.736 209.982 322.87 207.511 322.959 205.049C332.712 203.838 341.761 200.301 349.948 194.883C353.502 192.157 356.202 189.138 358.634 185.378Z"/>
	<path fill="#FEFEFE" d="M358.634 185.378C359.586 187.792 360.372 190.261 361.177 192.727Q362.733 197.825 363.955 203.013C365.464 209.601 366.216 216.339 366.599 223.081C367.022 226.557 367.212 230.441 366.836 233.926C365.49 233.359 326.705 232.492 321.738 232.259C321.788 229.279 321.989 226.279 322.159 223.303C322.309 219.691 322.366 216.043 322.723 212.445C322.736 209.982 322.87 207.511 322.959 205.049C332.712 203.838 341.761 200.301 349.948 194.883C353.502 192.157 356.202 189.138 358.634 185.378Z"/>
	<path fill="#EFDBD3" d="M358.634 185.378C359.586 187.792 360.372 190.261 361.177 192.727Q362.733 197.825 363.955 203.013C357.3 205.057 350.151 206.313 343.354 207.901C336.622 209.474 329.577 211.609 322.723 212.445C322.736 209.982 322.87 207.511 322.959 205.049C332.712 203.838 341.761 200.301 349.948 194.883C353.502 192.157 356.202 189.138 358.634 185.378Z"/>
	<path fill="#FEFEFE" d="M358.634 185.378C359.586 187.792 360.372 190.261 361.177 192.727C358.743 193.79 353.037 195.712 350.482 195.297L349.948 194.883C353.502 192.157 356.202 189.138 358.634 185.378Z"/>
	<path fill="#EFDBD3" d="M366.599 223.081C367.022 226.557 367.212 230.441 366.836 233.926C365.49 233.359 326.705 232.492 321.738 232.259C321.788 229.279 321.989 226.279 322.159 223.303C322.237 223.828 322.349 224.35 322.447 224.871C324.734 225.143 365.865 223.352 366.599 223.081Z"/>
	<path fill="#FEFEFE" d="M320.441 251.858Q336.913 256.628 353.257 261.823C355.829 262.64 359.079 263.046 361.463 264.217C359.383 270.603 356.934 277.318 353.545 283.134C352.009 285.989 350.349 289.864 348.183 292.264C347.826 291.576 323.339 276.475 320.732 275.016C320.005 274.609 319.254 274.298 318.463 274.043C318.77 271.156 318.885 268.163 319.392 265.31C319.633 260.833 319.99 256.319 320.441 251.858Z"/>
	<path fill="#EFDBD3" d="M319.392 265.31C320.101 265.398 320.75 265.567 321.394 265.874C328.056 269.044 334.547 272.88 341.063 276.358C344.588 278.24 350.498 280.933 353.545 283.134C352.009 285.989 350.349 289.864 348.183 292.264C347.826 291.576 323.339 276.475 320.732 275.016C320.005 274.609 319.254 274.298 318.463 274.043C318.77 271.156 318.885 268.163 319.392 265.31Z"/>
	<path fill="#EFDBD3" d="M320.998 244.555C324.793 244.362 330.833 246.349 334.692 247.245L355.243 251.997C358.168 252.666 361.384 253.051 364.231 253.918C363.351 257.369 362.414 260.786 361.463 264.217C359.079 263.046 355.829 262.64 353.257 261.823Q336.913 256.628 320.441 251.858C320.594 249.422 320.72 246.981 320.998 244.555Z"/>
	<path fill="#FEAA64" d="M250.086 101.86C258.551 101.484 267.589 101.458 275.782 103.842C287.043 107.119 295.258 115.794 300.765 125.833C296.041 125.382 291.156 125.566 286.411 125.596C266.804 125.72 250.616 127.887 231.94 134.155C224.625 136.654 217.644 139.464 210.555 142.538C210.508 142.414 210.463 142.289 210.414 142.166C209.529 139.899 208.088 137.674 206.705 135.684C201.864 128.715 196.009 124 188.285 120.541C191.922 117.747 195.565 114.919 199.564 112.653C214.681 104.089 233.066 102.458 250.086 101.86Z"/>
	<path fill="#FEAA64" d="M281.198 135.354C285.365 135.143 289.587 135.319 293.754 135.465C307.989 135.964 321.99 137.747 335.162 143.459C342.719 146.736 350.53 152.258 353.6 160.22C355.913 166.218 355.039 172.824 352.404 178.567Q352.067 179.283 351.696 179.982Q351.325 180.68 350.92 181.36Q350.515 182.039 350.078 182.698Q349.64 183.358 349.171 183.994Q348.702 184.631 348.202 185.245Q347.703 185.858 347.173 186.446Q346.644 187.034 346.087 187.596Q345.53 188.157 344.946 188.691Q344.362 189.225 343.753 189.729Q343.144 190.234 342.51 190.708Q341.877 191.182 341.222 191.625Q340.566 192.068 339.89 192.478Q339.213 192.888 338.517 193.265Q337.822 193.641 337.109 193.984Q336.395 194.326 335.666 194.633Q334.937 194.94 334.194 195.211C340.668 189.199 346.266 185.415 348.689 176.207Q348.828 175.681 348.94 175.148Q349.053 174.616 349.138 174.078Q349.223 173.541 349.282 173Q349.34 172.459 349.371 171.916Q349.402 171.372 349.406 170.828Q349.409 170.284 349.386 169.74Q349.362 169.196 349.311 168.655Q349.26 168.113 349.182 167.574Q349.104 167.036 348.999 166.502Q348.894 165.968 348.762 165.44Q348.631 164.912 348.473 164.391Q348.315 163.87 348.13 163.358Q347.946 162.846 347.737 162.344Q347.527 161.842 347.293 161.35Q347.058 160.859 346.799 160.381Q346.541 159.902 346.258 159.437C341.954 152.214 334.408 148.057 326.44 146.081C311.555 142.382 297.955 147.522 284.283 152.854C275.894 156.125 267.634 159.684 259.262 162.99C253.024 165.453 246.522 168.164 239.789 168.814C235.556 169.223 231.018 168.585 227.05 167.061C219.853 164.295 215.625 158.582 212.627 151.731C217.942 149.85 222.967 147.169 228.293 145.271C245.443 139.16 263.063 136.324 281.198 135.354Z"/>
	<path fill="#FEFEFE" d="M135.821 192.325C137.154 193.535 148.086 196.603 150.64 197.436C150.777 196.528 151.007 194.965 151.874 194.432C153.095 193.681 159.462 194.263 160.949 194.626L160.434 194.928C160.03 198.262 159.948 201.652 159.688 205.002C163.451 205.492 167.357 205.578 171.048 206.447C170.181 208.2 169.221 209.85 168.187 211.509C166.305 215.195 165.277 218.664 165.156 222.814C165.163 226.205 165.457 229.224 166.585 232.451C163.956 233.039 132.656 233.968 130.476 233.534C130.328 229.47 129.859 224.96 130.469 220.927C130.391 215.101 131.693 208.957 132.84 203.272C133.687 199.587 134.778 195.959 135.821 192.325Z"/>
	<path fill="#EFDBD3" d="M135.821 192.325C137.154 193.535 148.086 196.603 150.64 197.436C150.777 196.528 151.007 194.965 151.874 194.432C153.095 193.681 159.462 194.263 160.949 194.626L160.434 194.928C160.03 198.262 159.948 201.652 159.688 205.002C163.451 205.492 167.357 205.578 171.048 206.447C170.181 208.2 169.221 209.85 168.187 211.509C164.949 209.79 158.821 208.963 155.094 208.14L132.84 203.272C133.687 199.587 134.778 195.959 135.821 192.325Z"/>
	<path fill="#FE80B1" d="M150.64 197.436C150.777 196.528 151.007 194.965 151.874 194.432C153.095 193.681 159.462 194.263 160.949 194.626L160.434 194.928C160.03 198.262 159.948 201.652 159.688 205.002C157.569 204.946 152.695 205.261 151.225 203.642C149.885 202.166 150.486 199.268 150.64 197.436Z"/>
	<path fill="#EFDBD3" d="M130.476 233.534C130.328 229.47 129.859 224.96 130.469 220.927L130.615 223.216C134.291 223.672 138.221 223.568 141.931 223.71Q153.308 224.186 164.692 224.408C164.933 223.916 164.967 223.529 165.022 222.993L165.156 222.814C165.163 226.205 165.457 229.224 166.585 232.451C163.956 233.039 132.656 233.968 130.476 233.534Z"/>
	<path fill="#FEFEFE" d="M318.463 274.043C319.254 274.298 320.005 274.609 320.732 275.016C323.339 276.475 347.826 291.576 348.183 292.264C344.68 297.936 340.511 303.558 335.84 308.327Q332.116 312.138 328.274 315.83Q320.908 322.581 312.472 327.935C310.092 325.955 304.1 314.258 301.063 310.51C306.034 307.648 310.065 304.475 313.292 299.69C314.876 296.88 315.673 294.309 316.135 291.117C317.369 285.595 317.794 279.665 318.463 274.043Z"/>
	<path fill="#FEFEFE" d="M313.292 299.69Q321.051 307.511 328.274 315.83Q320.908 322.581 312.472 327.935C310.092 325.955 304.1 314.258 301.063 310.51C306.034 307.648 310.065 304.475 313.292 299.69Z"/>
	<path fill="#EFDBD3" d="M316.135 291.117C316.67 291.136 317.2 291.191 317.666 291.479C319.627 292.691 333.41 305.604 335.398 307.8C335.552 307.97 335.698 308.147 335.84 308.327Q332.116 312.138 328.274 315.83Q321.051 307.511 313.292 299.69C314.876 296.88 315.673 294.309 316.135 291.117Z"/>
	<path fill="#009BEE" d="M189.709 318.971C215.299 321.524 246.79 332.654 269.007 345.223C266.459 345.678 263.885 345.911 261.311 346.174C231.216 348.622 208.534 342.964 182.966 327.003C184.635 323.912 187.186 321.372 189.709 318.971Z"/>
	<path fill="#EFDBD3" d="M149.033 164.684C151.824 160.086 155.257 155.785 158.795 151.742C160.647 149.626 162.733 147.619 164.343 145.31C163.24 150.319 160.898 161.562 163.774 165.92C164.975 167.74 166.569 168.493 168.533 169.223C169.124 172.012 169.838 174.782 170.398 177.576C171.46 181.257 172.575 185.234 173.19 189.014C173.774 191.274 174.399 193.531 174.896 195.812Q167.915 195.306 160.949 194.626C159.462 194.263 153.095 193.681 151.874 194.432C151.007 194.965 150.777 196.528 150.64 197.436C148.086 196.603 137.154 193.535 135.821 192.325C137.911 186.102 140.466 180.214 143.351 174.319C145.136 171.053 146.982 167.791 149.033 164.684Z"/>
	<path fill="#FEFEFE" d="M143.351 174.319C150.167 177.301 156.685 181.066 163.248 184.565C165.878 185.966 168.762 187.839 171.577 188.801C172.089 188.976 172.654 188.984 173.19 189.014C173.774 191.274 174.399 193.531 174.896 195.812Q167.915 195.306 160.949 194.626C159.462 194.263 153.095 193.681 151.874 194.432C151.007 194.965 150.777 196.528 150.64 197.436C148.086 196.603 137.154 193.535 135.821 192.325C137.911 186.102 140.466 180.214 143.351 174.319Z"/>
	<path fill="#FEFEFE" d="M149.033 164.684C151.824 160.086 155.257 155.785 158.795 151.742C160.647 149.626 162.733 147.619 164.343 145.31C163.24 150.319 160.898 161.562 163.774 165.92C164.975 167.74 166.569 168.493 168.533 169.223C169.124 172.012 169.838 174.782 170.398 177.576C170.15 177.834 170.196 177.926 169.897 177.9C169.473 177.862 149.893 165.62 149.033 164.684Z"/>
	<path fill="#FEFEFE" d="M292.773 314.298C295.587 313.091 298.337 311.913 301.063 310.51C304.1 314.258 310.092 325.955 312.472 327.935C309.529 330.04 306.272 331.74 303.118 333.507Q294.137 338.121 284.536 341.248C283.207 341.555 281.857 341.783 280.515 342.032C280.266 337.897 280.309 333.716 280.969 329.618C281.271 325.162 282.923 320.453 285.138 316.603Q288.971 315.503 292.773 314.298Z"/>
	<path fill="#EFDBD3" d="M292.773 314.298C295.587 313.091 298.337 311.913 301.063 310.51C304.1 314.258 310.092 325.955 312.472 327.935C309.529 330.04 306.272 331.74 303.118 333.507C300.261 328.716 297.837 323.51 295.196 318.583C294.46 317.209 293.842 315.42 292.773 314.298Z"/>
	<path fill="#EFDBD3" d="M280.515 342.032C280.266 337.897 280.309 333.716 280.969 329.618C280.878 332.674 283.223 338.396 284.536 341.248C283.207 341.555 281.857 341.783 280.515 342.032Z"/>
	<path fill="#FEAA64" d="M181.099 126.858C182.853 127.627 184.643 128.373 186.31 129.319C193.982 133.67 197.444 139.891 199.746 148.102C195.145 149.917 190.673 152.044 186.061 153.85C183.814 154.674 175.515 158.254 173.672 157.537C172.855 157.219 172.362 156.337 172.149 155.537C170.293 148.572 177.561 132.963 181.099 126.858Z"/>
	<path fill="#303C68" d="M89.0425 213.662Q89.4054 213.648 89.7686 213.652Q90.1318 213.657 90.4943 213.678Q90.8569 213.7 91.2179 213.74Q91.579 213.779 91.9377 213.836Q92.2964 213.893 92.6518 213.968Q93.0073 214.042 93.3587 214.134Q93.7101 214.226 94.0566 214.335Q94.4031 214.444 94.7439 214.569Q95.0846 214.695 95.4189 214.837Q95.7531 214.979 96.08 215.138Q96.4068 215.296 96.7256 215.47Q97.0444 215.644 97.3542 215.833Q97.6641 216.023 97.9643 216.227Q98.2646 216.432 98.5545 216.65Q98.8444 216.869 99.1233 217.102Q99.4022 217.335 99.6693 217.581Q99.9365 217.827 100.191 218.085Q100.446 218.344 100.688 218.615Q100.93 218.886 101.158 219.168Q101.387 219.451 101.601 219.744Q101.815 220.037 102.015 220.341Q102.215 220.644 102.399 220.957Q102.584 221.27 102.753 221.591Q102.922 221.912 103.076 222.242Q103.229 222.571 103.366 222.907Q103.503 223.244 103.623 223.586Q103.744 223.929 103.847 224.277Q103.951 224.625 104.037 224.978Q104.124 225.331 104.193 225.687Q104.262 226.044 104.313 226.403Q104.365 226.763 104.399 227.125Q104.433 227.486 104.449 227.849Q104.465 228.212 104.464 228.575Q104.462 228.938 104.443 229.301Q104.424 229.664 104.387 230.025Q104.35 230.386 104.295 230.745Q104.241 231.104 104.169 231.46Q104.097 231.816 104.007 232.168Q103.918 232.521 103.812 232.868Q103.705 233.215 103.582 233.557Q103.459 233.898 103.319 234.234Q103.179 234.569 103.023 234.897Q102.867 235.225 102.695 235.545Q102.523 235.865 102.336 236.176Q102.149 236.487 101.946 236.789Q101.744 237.091 101.528 237.382Q101.311 237.673 101.08 237.954Q100.849 238.234 100.605 238.503Q100.361 238.772 100.104 239.029Q99.847 239.286 99.5778 239.529Q99.3086 239.773 99.0278 240.003Q98.747 240.234 98.4552 240.45Q98.1635 240.667 97.8616 240.868Q97.5596 241.07 97.2482 241.257Q96.9367 241.444 96.6165 241.615Q96.2963 241.787 95.9681 241.942Q95.6399 242.098 95.3045 242.237Q94.9691 242.377 94.6273 242.5Q94.2855 242.622 93.9381 242.728Q93.5907 242.834 93.2385 242.923Q92.8863 243.012 92.5303 243.084Q92.1742 243.155 91.815 243.209Q91.4559 243.263 91.0945 243.3Q90.7331 243.336 90.3704 243.355Q90.0044 243.374 89.638 243.375Q89.2715 243.376 88.9054 243.359Q88.5394 243.341 88.1746 243.306Q87.8098 243.271 87.4473 243.218Q87.0847 243.165 86.7251 243.094Q86.3656 243.023 86.01 242.934Q85.6544 242.846 85.3036 242.74Q84.9528 242.634 84.6077 242.51Q84.2625 242.387 83.9238 242.247Q83.5852 242.107 83.2538 241.951Q82.9225 241.794 82.5993 241.621Q82.276 241.449 81.9617 241.26Q81.6474 241.072 81.3427 240.868Q81.0381 240.665 80.7438 240.446Q80.4496 240.228 80.1665 239.995Q79.8833 239.762 79.612 239.516Q79.3407 239.27 79.0819 239.01Q78.8231 238.751 78.5773 238.479Q78.3316 238.207 78.0995 237.923Q77.8675 237.64 77.6497 237.345Q77.4319 237.05 77.2289 236.745Q77.0259 236.44 76.8382 236.125Q76.6505 235.811 76.4786 235.487Q76.3066 235.163 76.1508 234.832Q75.995 234.5 75.8557 234.161Q75.7164 233.822 75.5941 233.477Q75.4717 233.131 75.3664 232.78Q75.2612 232.429 75.1734 232.073Q75.0856 231.718 75.0155 231.358Q74.9453 230.998 74.893 230.636Q74.8407 230.273 74.8063 229.908Q74.7719 229.543 74.7555 229.177Q74.7391 228.811 74.7408 228.444Q74.7425 228.078 74.7623 227.712Q74.782 227.346 74.8198 226.982Q74.8576 226.617 74.9133 226.255Q74.9689 225.893 75.0424 225.534Q75.1159 225.175 75.207 224.82Q75.298 224.465 75.4065 224.115Q75.515 223.765 75.6405 223.42Q75.7661 223.076 75.9085 222.738Q76.0509 222.401 76.2098 222.071Q76.3686 221.74 76.5436 221.418Q76.7185 221.096 76.9091 220.783Q77.0997 220.47 77.3055 220.167Q77.5113 219.864 77.7318 219.571Q77.9523 219.279 78.187 218.997Q78.4216 218.716 78.6699 218.446Q78.9181 218.176 79.1793 217.919Q79.4405 217.662 79.7141 217.419Q79.9877 217.175 80.2729 216.945Q80.5582 216.715 80.8544 216.499Q81.1507 216.283 81.4572 216.082Q81.7637 215.882 82.0798 215.696Q82.3958 215.51 82.7206 215.341Q83.0454 215.171 83.3782 215.018Q83.711 214.864 84.0509 214.727Q84.3909 214.59 84.7371 214.47Q85.0834 214.35 85.4352 214.248Q85.7869 214.145 86.1433 214.06Q86.4997 213.974 86.8599 213.907Q87.22 213.839 87.5831 213.789Q87.9462 213.74 88.3112 213.708Q88.6763 213.676 89.0425 213.662Z"/>
	<path fill="#EFDBD3" d="M89.1389 220.862C90.6746 221.502 91.0691 222.603 91.7667 224.014L96.7461 224.605L94.2833 228.632C94.8158 229.322 95.4452 230.037 95.8866 230.785C96.201 231.318 96.2152 231.582 96.0458 232.159C94.9224 232.901 93.2851 232.87 91.9635 233.022C91.2928 234.098 90.583 235.122 89.833 236.143C88.6072 235.388 87.9349 234.031 87.2139 232.833C85.6011 232.777 84.0645 232.596 82.4728 232.333L85.0627 228.498C84.4372 227.704 83.1686 226.394 83.1028 225.385C83.0734 224.933 83.2569 224.893 83.5391 224.574C84.7714 224.095 86.1572 224.194 87.4645 224.166Q88.2759 222.501 89.1389 220.862Z"/>
	<path fill="#303C68" d="M407.002 213.675Q407.366 213.658 407.731 213.659Q408.096 213.66 408.46 213.679Q408.824 213.698 409.187 213.735Q409.55 213.772 409.91 213.827Q410.271 213.881 410.628 213.953Q410.986 214.026 411.339 214.115Q411.693 214.205 412.041 214.312Q412.39 214.419 412.733 214.543Q413.076 214.667 413.412 214.807Q413.749 214.948 414.078 215.105Q414.407 215.261 414.728 215.434Q415.05 215.607 415.362 215.796Q415.674 215.984 415.977 216.188Q416.279 216.391 416.571 216.609Q416.864 216.827 417.145 217.059Q417.426 217.292 417.696 217.537Q417.965 217.783 418.222 218.042Q418.479 218.3 418.723 218.571Q418.967 218.842 419.198 219.125Q419.428 219.407 419.645 219.701Q419.861 219.995 420.063 220.298Q420.265 220.602 420.451 220.916Q420.638 221.229 420.809 221.551Q420.98 221.873 421.134 222.203Q421.289 222.533 421.428 222.871Q421.567 223.208 421.688 223.552Q421.81 223.896 421.915 224.245Q422.02 224.594 422.107 224.948Q422.195 225.302 422.265 225.66Q422.335 226.018 422.387 226.379Q422.44 226.74 422.475 227.103Q422.509 227.466 422.526 227.83Q422.543 228.194 422.542 228.559Q422.541 228.924 422.522 229.288Q422.503 229.652 422.466 230.015Q422.429 230.378 422.374 230.738Q422.32 231.099 422.248 231.456Q422.175 231.814 422.086 232.167Q421.996 232.521 421.889 232.869Q421.782 233.218 421.658 233.561Q421.534 233.904 421.394 234.24Q421.253 234.577 421.096 234.906Q420.94 235.235 420.767 235.556Q420.594 235.878 420.405 236.19Q420.217 236.502 420.013 236.805Q419.81 237.107 419.592 237.399Q419.374 237.692 419.142 237.973Q418.909 238.254 418.664 238.524Q418.418 238.793 418.159 239.05Q417.901 239.307 417.63 239.551Q417.359 239.795 417.076 240.026Q416.794 240.256 416.5 240.473Q416.206 240.689 415.903 240.891Q415.599 241.093 415.285 241.279Q414.972 241.466 414.65 241.637Q414.328 241.808 413.998 241.963Q413.668 242.117 413.33 242.256Q412.993 242.395 412.649 242.516Q412.306 242.638 411.956 242.743Q411.607 242.848 411.253 242.935Q410.899 243.023 410.541 243.093Q410.183 243.163 409.822 243.215Q409.461 243.268 409.098 243.303Q408.735 243.337 408.371 243.354Q408.007 243.371 407.642 243.37Q407.277 243.369 406.913 243.35Q406.549 243.331 406.186 243.294Q405.823 243.257 405.463 243.202Q405.102 243.148 404.745 243.076Q404.387 243.003 404.034 242.914Q403.68 242.824 403.332 242.717Q402.983 242.61 402.64 242.486Q402.297 242.363 401.961 242.222Q401.624 242.081 401.295 241.924Q400.966 241.768 400.645 241.595Q400.323 241.422 400.011 241.233Q399.699 241.045 399.396 240.841Q399.094 240.638 398.802 240.42Q398.509 240.202 398.228 239.97Q397.947 239.737 397.677 239.492Q397.408 239.246 397.151 238.987Q396.894 238.729 396.65 238.458Q396.406 238.187 396.175 237.904Q395.945 237.622 395.728 237.328Q395.512 237.035 395.31 236.731Q395.108 236.427 394.922 236.114Q394.735 235.8 394.564 235.478Q394.393 235.156 394.239 234.826Q394.084 234.496 393.945 234.158Q393.807 233.821 393.685 233.477Q393.563 233.134 393.458 232.784Q393.353 232.435 393.266 232.081Q393.178 231.727 393.108 231.369Q393.038 231.011 392.986 230.65Q392.933 230.289 392.898 229.926Q392.864 229.563 392.847 229.199Q392.83 228.835 392.831 228.47Q392.832 228.105 392.851 227.741Q392.87 227.377 392.907 227.014Q392.944 226.651 392.999 226.291Q393.053 225.93 393.125 225.573Q393.198 225.215 393.287 224.862Q393.377 224.508 393.484 224.16Q393.591 223.811 393.715 223.468Q393.839 223.125 393.979 222.789Q394.12 222.452 394.277 222.123Q394.433 221.794 394.606 221.473Q394.779 221.151 394.968 220.839Q395.156 220.527 395.36 220.224Q395.563 219.922 395.781 219.63Q395.999 219.337 396.231 219.056Q396.464 218.775 396.709 218.505Q396.955 218.236 397.214 217.979Q397.472 217.722 397.743 217.478Q398.014 217.234 398.297 217.003Q398.579 216.773 398.873 216.556Q399.167 216.34 399.47 216.138Q399.774 215.936 400.088 215.75Q400.401 215.563 400.723 215.392Q401.045 215.221 401.375 215.067Q401.705 214.912 402.043 214.773Q402.38 214.634 402.724 214.513Q403.068 214.391 403.417 214.286Q403.766 214.181 404.12 214.094Q404.474 214.006 404.832 213.936Q405.19 213.866 405.551 213.814Q405.912 213.761 406.275 213.726Q406.638 213.692 407.002 213.675Z"/>
	<path fill="#EFDBD3" d="M407.468 220.861C408.716 221.452 409.423 223.051 410.122 224.205C410.958 224.208 411.833 224.176 412.663 224.264C413.323 224.333 413.761 224.485 414.201 225C414.252 226.424 413.162 227.401 412.289 228.431C413.206 229.676 414.031 230.991 414.876 232.286C413.242 232.596 411.608 232.833 409.959 233.048C409.338 234.176 408.674 235.302 407.675 236.13C406.692 235.158 405.975 233.977 405.216 232.83C404.235 232.797 402.904 232.869 401.979 232.555C401.441 232.373 401.385 232.277 401.14 231.806C401.38 230.561 402.407 229.426 403.126 228.4C402.472 227.648 401.275 226.495 401.123 225.507C401.052 225.046 401.204 225.022 401.463 224.671C402.72 224.124 404.093 224.2 405.443 224.159C406.07 223.022 406.668 221.888 407.468 220.861Z"/>
	<path fill="#303C68" d="M122.199 109.797Q123.167 109.764 124.121 109.935C129.435 110.882 128.63 114.154 130.587 115.313C133.305 116.924 135.89 115.683 138.07 119.089C139.15 120.775 139.86 123.269 139.351 125.235C139.064 126.342 138.574 127.376 137.965 128.341C136.903 130.023 131.047 137.605 129.745 138.374L128.856 137.662C122.259 132.518 115.978 126.738 109.598 121.314C113.924 117.574 116.347 111.439 122.199 109.797Z"/>
	<path fill="#EFDBD3" d="M130.795 121.215C132.331 121.669 132.988 122.489 133.904 123.718C132.551 125.89 130.971 127.83 129.362 129.812C128.097 128.869 126.931 127.75 125.747 126.704C127.28 124.72 128.827 122.789 130.795 121.215Z"/>
	<path fill="#EFDBD3" d="M122.717 115.635C123.316 115.616 124.023 115.904 124.523 116.227C125.026 116.55 125.218 116.964 125.248 117.553C125.328 119.137 122.718 121.652 121.688 122.836C120.35 122.681 119.272 121.283 118.372 120.375C119.768 118.748 121.131 117.083 122.717 115.635Z"/>
	<path fill="#303C68" d="M148.557 85.0176C149.023 84.9579 149.488 84.9188 149.958 84.9408C153.88 85.1242 155.774 86.9349 157.186 90.4403C157.399 90.9701 157.656 91.8527 158.027 92.2647C159.113 93.4693 161.566 93.4695 162.896 95.0997C164.34 96.8693 165.242 99.2739 164.942 101.56C164.284 106.553 156.156 111.344 152.405 114.238L152.296 114.356L151.906 114.343C146.943 107.292 141.569 100.29 136.17 93.5661C140.146 90.6445 144.059 87.0728 148.557 85.0176Z"/>
	<path fill="#EFDBD3" d="M156.222 97.9053C156.973 98.0908 157.886 98.5831 158.473 99.0925C158.841 99.4111 159.032 99.8372 159.025 100.32C158.994 102.343 155.091 104.71 153.704 106.055C152.526 104.815 151.592 103.44 150.625 102.034C152.562 100.779 154.381 99.2963 156.222 97.9053Z"/>
	<path fill="#EFDBD3" d="M150.142 90.7197C150.897 90.8195 151.369 91.222 151.966 91.6543C152.207 92.1651 152.335 92.4096 152.188 92.999C151.75 94.7665 148.696 96.7065 147.283 97.7957C146.474 96.6797 145.613 95.6033 144.762 94.5199C146.527 93.204 148.284 91.906 150.142 90.7197Z"/>
	<path fill="#303C68" d="M254.967 378.316Q255.266 378.266 255.568 378.23Q255.869 378.194 256.172 378.173Q256.475 378.153 256.779 378.147Q257.082 378.141 257.386 378.15Q257.689 378.159 257.992 378.183Q258.295 378.207 258.596 378.246Q258.897 378.285 259.196 378.339Q259.495 378.393 259.79 378.461Q260.086 378.53 260.378 378.613Q260.67 378.696 260.958 378.793Q261.246 378.89 261.528 379.002Q261.81 379.113 262.087 379.238Q262.364 379.363 262.634 379.502Q262.904 379.64 263.167 379.792Q263.43 379.944 263.685 380.108Q263.94 380.273 264.187 380.45Q264.434 380.626 264.672 380.815Q264.91 381.004 265.138 381.204Q265.366 381.405 265.584 381.616Q265.802 381.827 266.009 382.049Q266.216 382.271 266.413 382.503Q266.609 382.735 266.793 382.976Q266.978 383.217 267.15 383.467Q267.322 383.717 267.482 383.975Q267.642 384.233 267.789 384.499Q267.936 384.765 268.069 385.037Q268.203 385.31 268.323 385.589Q268.443 385.868 268.549 386.152Q268.655 386.437 268.747 386.726Q268.839 387.015 268.917 387.309Q268.995 387.602 269.058 387.899Q269.121 388.196 269.169 388.496Q269.217 388.796 269.251 389.098Q269.284 389.399 269.303 389.702Q269.322 390.006 269.325 390.309Q269.329 390.613 269.317 390.916Q269.306 391.22 269.28 391.522Q269.253 391.825 269.212 392.125Q269.171 392.426 269.115 392.725Q269.059 393.023 268.989 393.318Q268.918 393.614 268.833 393.905Q268.748 394.197 268.648 394.484Q268.549 394.771 268.436 395.052Q268.322 395.334 268.195 395.61Q268.068 395.885 267.928 396.155Q267.787 396.424 267.633 396.686Q267.48 396.948 267.313 397.202Q267.147 397.456 266.968 397.701Q266.79 397.946 266.599 398.183Q266.408 398.419 266.206 398.646Q266.004 398.873 265.792 399.089Q265.579 399.306 265.355 399.511Q265.132 399.717 264.899 399.911Q264.665 400.106 264.423 400.289Q264.18 400.471 263.929 400.642Q263.678 400.812 263.419 400.97Q263.159 401.128 262.892 401.273Q262.626 401.418 262.352 401.55Q262.078 401.681 261.799 401.799Q261.519 401.917 261.234 402.021Q260.948 402.126 260.658 402.215Q260.368 402.305 260.074 402.381Q259.78 402.456 259.483 402.517Q259.185 402.578 258.885 402.624Q258.588 402.67 258.288 402.701Q257.989 402.732 257.689 402.748Q257.389 402.765 257.088 402.767Q256.787 402.768 256.486 402.756Q256.186 402.743 255.886 402.715Q255.587 402.688 255.289 402.645Q254.991 402.603 254.696 402.547Q254.4 402.49 254.108 402.419Q253.815 402.348 253.527 402.263Q253.238 402.177 252.954 402.078Q252.67 401.979 252.392 401.866Q252.113 401.753 251.84 401.627Q251.567 401.5 251.3 401.361Q251.034 401.221 250.775 401.069Q250.515 400.916 250.264 400.751Q250.012 400.586 249.769 400.409Q249.526 400.232 249.292 400.043Q249.057 399.855 248.832 399.655Q248.608 399.455 248.393 399.244Q248.178 399.034 247.974 398.813Q247.77 398.592 247.577 398.361Q247.383 398.131 247.202 397.891Q247.02 397.651 246.85 397.403Q246.681 397.154 246.523 396.898Q246.366 396.642 246.221 396.378Q246.076 396.114 245.945 395.844Q245.813 395.573 245.695 395.297Q245.576 395.02 245.472 394.738Q245.367 394.456 245.276 394.169Q245.186 393.882 245.109 393.591Q245.033 393.301 244.97 393.006Q244.908 392.712 244.86 392.415Q244.812 392.118 244.779 391.819Q244.746 391.52 244.727 391.22Q244.708 390.92 244.704 390.619Q244.7 390.318 244.711 390.017Q244.722 389.717 244.747 389.417Q244.772 389.117 244.812 388.819Q244.852 388.521 244.907 388.225Q244.961 387.929 245.03 387.636Q245.099 387.344 245.182 387.054Q245.265 386.765 245.363 386.481Q245.46 386.196 245.571 385.916Q245.682 385.637 245.806 385.363Q245.93 385.089 246.068 384.821Q246.206 384.554 246.356 384.293Q246.507 384.033 246.67 383.78Q246.833 383.527 247.008 383.283Q247.184 383.038 247.371 382.803Q247.558 382.567 247.756 382.341Q247.954 382.115 248.163 381.898Q248.372 381.682 248.592 381.476Q248.811 381.271 249.04 381.076Q249.27 380.881 249.508 380.698Q249.747 380.514 249.994 380.343Q250.241 380.171 250.496 380.012Q250.751 379.852 251.014 379.706Q251.277 379.559 251.546 379.426Q251.816 379.292 252.091 379.172Q252.367 379.051 252.648 378.945Q252.93 378.838 253.216 378.745Q253.502 378.652 253.792 378.574Q254.083 378.495 254.377 378.43Q254.67 378.366 254.967 378.316Z"/>
	<path fill="#EFDBD3" d="M256.126 383.934Q256.283 383.913 256.441 383.901Q256.599 383.888 256.757 383.882Q256.916 383.877 257.074 383.88Q257.232 383.882 257.39 383.892Q257.549 383.902 257.706 383.92Q257.863 383.938 258.02 383.963Q258.176 383.988 258.331 384.021Q258.486 384.054 258.639 384.094Q258.793 384.135 258.944 384.182Q259.095 384.23 259.243 384.285Q259.392 384.34 259.538 384.402Q259.683 384.464 259.826 384.533Q259.969 384.602 260.108 384.677Q260.247 384.753 260.382 384.836Q260.517 384.918 260.649 385.007Q260.78 385.096 260.906 385.191Q261.033 385.286 261.155 385.387Q261.277 385.488 261.394 385.595Q261.511 385.702 261.622 385.815Q261.734 385.927 261.84 386.045Q261.946 386.163 262.046 386.285Q262.146 386.408 262.241 386.535Q262.335 386.663 262.423 386.794Q262.511 386.926 262.592 387.062Q262.673 387.198 262.748 387.338Q262.823 387.477 262.891 387.621Q262.959 387.764 263.02 387.91Q263.081 388.056 263.134 388.205Q263.188 388.354 263.235 388.506Q263.281 388.657 263.32 388.81Q263.359 388.964 263.391 389.119Q263.423 389.274 263.447 389.431Q263.471 389.588 263.488 389.745Q263.504 389.903 263.513 390.061Q263.522 390.219 263.523 390.377Q263.525 390.536 263.518 390.694Q263.512 390.852 263.498 391.01Q263.484 391.168 263.462 391.325Q263.44 391.482 263.411 391.638Q263.382 391.793 263.345 391.948Q263.308 392.102 263.264 392.254Q263.22 392.406 263.169 392.556Q263.117 392.706 263.059 392.853Q263 393 262.934 393.144Q262.869 393.288 262.796 393.429Q262.724 393.57 262.644 393.707Q262.565 393.844 262.479 393.978Q262.393 394.111 262.301 394.24Q262.209 394.368 262.111 394.493Q262.012 394.617 261.908 394.736Q261.804 394.856 261.694 394.97Q261.584 395.084 261.469 395.193Q261.354 395.302 261.234 395.405Q261.113 395.508 260.988 395.605Q260.863 395.702 260.733 395.793Q260.604 395.884 260.47 395.968Q260.336 396.053 260.198 396.131Q260.06 396.209 259.918 396.28Q259.777 396.351 259.632 396.416Q259.487 396.48 259.339 396.537Q259.192 396.594 259.041 396.644Q258.891 396.694 258.738 396.737Q258.586 396.78 258.431 396.815Q258.277 396.85 258.121 396.878Q257.907 396.916 257.69 396.94Q257.474 396.964 257.257 396.973Q257.039 396.982 256.822 396.977Q256.604 396.972 256.388 396.953Q256.171 396.933 255.956 396.9Q255.741 396.866 255.529 396.818Q255.316 396.77 255.108 396.708Q254.899 396.646 254.695 396.57Q254.491 396.494 254.293 396.405Q254.094 396.316 253.902 396.214Q253.71 396.112 253.525 395.998Q253.34 395.883 253.163 395.756Q252.986 395.63 252.818 395.492Q252.65 395.354 252.491 395.205Q252.332 395.056 252.184 394.897Q252.036 394.738 251.898 394.569Q251.76 394.4 251.634 394.223Q251.508 394.046 251.394 393.86Q251.28 393.675 251.179 393.482Q251.078 393.29 250.989 393.091Q250.901 392.892 250.826 392.688Q250.751 392.484 250.689 392.275Q250.628 392.066 250.581 391.854Q250.533 391.642 250.5 391.427Q250.467 391.211 250.448 390.995Q250.429 390.778 250.425 390.56Q250.421 390.343 250.431 390.125Q250.441 389.908 250.465 389.692Q250.49 389.476 250.528 389.262Q250.567 389.047 250.62 388.836Q250.673 388.625 250.74 388.418Q250.807 388.211 250.887 388.009Q250.967 387.807 251.061 387.61Q251.155 387.414 251.261 387.224Q251.368 387.034 251.486 386.852Q251.605 386.67 251.736 386.496Q251.866 386.322 252.008 386.157Q252.15 385.992 252.303 385.837Q252.455 385.682 252.618 385.537Q252.78 385.392 252.952 385.259Q253.124 385.125 253.304 385.003Q253.484 384.881 253.672 384.772Q253.86 384.662 254.055 384.565Q254.25 384.468 254.451 384.384Q254.651 384.301 254.857 384.23Q255.063 384.16 255.273 384.103Q255.483 384.047 255.697 384.005Q255.91 383.962 256.126 383.934Z"/>
	<path fill="#303C68" d="M392.373 128.235L392.796 128.461C395.54 132.734 400.36 138.706 399.388 144.084C398.993 146.272 397.865 148.097 396.008 149.334C393.101 151.271 390 151.043 386.736 150.385C385.09 153.669 383.164 156.96 381.203 160.065C380.322 158.19 378.203 155.961 377.867 153.979C377.739 153.226 378.198 152.732 378.555 152.115Q380.433 148.76 382.395 145.453C382.212 145.042 382.035 144.607 381.804 144.22C381.484 143.685 381.111 143.321 380.47 143.246C378.697 143.038 375.195 146.216 373.689 147.299Q371.919 144.5 370.196 141.672C377.596 137.226 385.1 132.879 392.373 128.235Z"/>
	<path fill="#EFDBD3" d="M390.378 136.727L390.906 136.933C392.095 138.535 393.515 140.176 393.471 142.294C393.454 143.071 393.246 143.804 392.648 144.331C391.744 145.128 390.658 145.023 389.541 144.949C387.961 143.517 386.895 141.596 385.751 139.816C387.256 138.725 388.812 137.727 390.378 136.727Z"/>
	<path fill="#303C68" d="M88.2074 158.294C92.2693 160.019 96.6049 161.353 100.765 162.838C104.74 164.257 108.905 166.083 113.025 166.937C112.491 168.734 111.806 170.45 111.104 172.186C105.284 173.446 99.4282 175.254 93.479 175.718C98.1344 177.998 103.218 179.525 108.113 181.215C107.354 182.801 106.829 184.538 106.237 186.194C106.172 186.685 106.144 186.654 105.864 187.015C104.846 187.083 83.6705 179.392 81.1086 178.218C81.9936 176.442 82.5977 174.455 83.288 172.593C87.5824 171.129 94.857 169.402 99.3395 169.086C94.9757 167.356 90.4944 165.892 86.0989 164.237C87.0181 162.456 87.782 160.249 88.2074 158.294Z"/>
	<path fill="#303C68" d="M220.712 54.5904C221.427 55.6377 225.998 77.4973 226.587 80.3715C224.855 80.5815 223.116 81.0183 221.405 81.3623C217.254 76.8562 212.519 72.9223 208.602 68.1843C209.731 73.3542 211.011 78.502 211.989 83.7025C210.641 83.7895 209.476 83.9867 208.181 84.3708C207.439 84.6307 206.733 84.9473 205.976 84.6992C204.958 81.9031 204.504 78.804 203.845 75.8987Q201.922 67.504 200.113 59.0841C202.327 58.939 204.236 58.4694 206.308 57.6843C209.44 61.9034 213.982 65.3391 217.472 69.324C217.015 64.9346 215.708 60.4803 214.646 56.1974C216.63 55.5551 218.691 55.1024 220.712 54.5904Z"/>
	<path fill="#303C68" d="M307.552 62.5845C309.42 63.1797 311.442 64.4521 313.299 65.2282C313.901 70.612 315.081 75.9245 315.734 81.3055C317.561 77.0282 319.052 72.2369 321.449 68.2514C322.992 69.6347 325.038 70.2539 326.936 71.015C325.643 73.8942 317.447 94.3699 316.253 95.0124L315.684 94.8012L311.927 93.1945C310.52 87.3284 309.551 80.8927 308.984 74.8887Q305.998 82.0743 302.903 89.2133C300.914 88.6447 298.986 87.5768 297.113 86.7023C300.484 78.6627 303.754 70.4259 307.552 62.5845Z"/>
	<path fill="#303C68" d="M252.178 52.5967C252.484 52.6068 252.785 52.6204 253.09 52.6418C257.576 52.957 260.449 54.6254 263.369 58.0017L263.173 58.1687C262.317 58.8855 259.535 61.4344 258.702 61.7026C258.498 61.7681 254.609 58.7453 252.586 58.6368C250.762 58.539 249.165 59.4323 247.841 60.6113C246.353 61.9358 245.445 63.7531 245.372 65.7544Q245.359 66.1179 245.382 66.4809Q245.405 66.8439 245.463 67.2029Q245.522 67.562 245.615 67.9135Q245.709 68.265 245.836 68.6057Q245.963 68.9464 246.124 69.2729Q246.284 69.5995 246.475 69.9087Q246.667 70.218 246.888 70.5069Q247.109 70.7958 247.357 71.0617C248.724 72.5067 250.422 73.0687 252.378 73.0983C255.151 73.1403 256.294 72.1775 258.205 70.336L251.277 70.511C251.28 68.3514 251.386 66.2902 251.626 64.1427C253.55 64.3878 255.439 64.4894 257.375 64.5469L265.941 64.8C265.736 68.3348 265.387 71.4251 263.158 74.3275Q262.75 74.852 262.291 75.3333Q261.833 75.8147 261.328 76.248Q260.824 76.6814 260.28 77.0625Q259.735 77.4436 259.155 77.7687Q258.575 78.0938 257.966 78.3596Q257.357 78.6254 256.724 78.8294Q256.091 79.0333 255.441 79.1734Q254.792 79.3134 254.131 79.3882Q253.462 79.4693 252.788 79.4827Q252.115 79.4962 251.443 79.4418Q250.771 79.3875 250.108 79.2659Q249.445 79.1444 248.798 78.9568Q248.151 78.7692 247.526 78.5176Q246.901 78.2659 246.304 77.9527Q245.707 77.6394 245.145 77.2678Q244.583 76.8962 244.061 76.47Q243.539 76.0509 243.061 75.582Q242.583 75.1132 242.154 74.5992Q241.725 74.0853 241.349 73.5313Q240.974 72.9773 240.655 72.3888Q240.336 71.8002 240.076 71.1829Q239.817 70.5656 239.621 69.9256Q239.424 69.2857 239.292 68.6294Q239.16 67.9731 239.094 67.3069C238.754 63.8028 239.961 59.9825 242.235 57.2944C244.831 54.2248 248.261 52.8995 252.178 52.5967Z"/>
	<path fill="#303C68" d="M172.693 357.323C176.038 358.746 183.291 362.25 184.977 365.518C185.854 367.217 185.863 369.205 185.236 370.988C184.644 372.671 183.493 373.805 181.928 374.599C182.157 377.284 182.14 379.674 180.31 381.885C178.833 383.67 176.781 384.383 174.551 384.579C170.825 384.406 164.394 380.032 161.092 378.162C162.959 376.01 164.295 372.909 165.654 370.393L172.693 357.323Z"/>
	<path fill="#EFDBD3" d="M170.794 372.552C172.326 373.236 174.341 373.941 175.617 375.022C176.166 375.487 176.626 376.074 176.667 376.813C176.727 377.867 175.916 378.6 175.249 379.308C172.93 378.726 170.804 377.311 168.749 376.125C169.603 374.987 170.332 373.91 170.794 372.552Z"/>
	<path fill="#EFDBD3" d="M174.97 365.085C177.126 365.329 179.307 367.055 180.852 368.474L179.208 370.603C177.321 370.553 174.861 368.834 173.2 367.942C173.87 367.05 174.404 366.046 174.97 365.085Z"/>
	<path fill="#303C68" d="M306.86 366.788C308.614 366.737 310.35 367.161 311.834 368.115Q312.174 368.337 312.489 368.592Q312.805 368.847 313.093 369.133Q313.381 369.419 313.639 369.732Q313.896 370.046 314.121 370.384Q314.345 370.722 314.534 371.081Q314.724 371.44 314.875 371.816Q315.027 372.192 315.14 372.582Q315.253 372.972 315.326 373.371C315.774 375.741 315.207 377.614 313.866 379.528C316.759 381.457 319.473 383.755 322.2 385.913Q319.147 387.196 316.12 388.537C313.8 386.839 311.591 384.913 309.344 383.115C308.363 383.282 307.206 383.309 306.573 384.117L306.737 384.802C307.542 386.931 308.38 389.214 309.717 391.067C307.781 391.889 305.859 392.699 303.866 393.374C302.95 390.096 301.386 386.854 300.089 383.702C298.379 379.547 296.768 375.297 294.829 371.243C298.843 369.827 302.665 367.633 306.86 366.788Z"/>
	<path fill="#EFDBD3" d="M306.549 372.536C307.01 372.487 307.466 372.446 307.926 372.531C308.89 372.708 309.525 372.995 310.084 373.807C310.175 374.348 310.171 374.717 309.957 375.219C309.129 377.155 307.676 377.679 305.877 378.458C305.538 378.564 304.837 378.798 304.53 378.604C303.362 377.862 302.732 375.15 302.28 373.859C303.715 373.467 305.131 372.985 306.549 372.536Z"/>
	<path fill="#303C68" d="M127.83 313.938C129.054 314.198 130.973 317.297 131.78 318.367C129.665 322.712 128.107 327.449 126.377 331.962C129.79 329.637 133.042 327.06 136.326 324.557C137.528 326.127 138.72 327.692 140.022 329.181C136.989 331.287 122.309 342.88 120.65 343.406L120.322 343.055C119.467 341.954 118.6 340.877 117.688 339.823C119.626 334.704 121.379 329.361 123.766 324.439C119.772 326.872 116.225 330.014 112.395 332.695C111.374 331.076 110.193 329.533 108.767 328.251Q118.256 321.038 127.83 313.938Z"/>
	<path fill="#303C68" d="M214.165 374.881L219.922 375.719C221.538 380.373 223.686 384.94 225.464 389.548C226.064 385.482 226.965 381.447 227.627 377.386C229.558 377.431 231.471 377.851 233.368 378.19C232.748 382.297 231.926 386.39 231.217 390.484C230.595 394.07 230.099 397.7 229.329 401.257C228.775 401.654 227.795 401.514 227.124 401.507L224.46 401.061C222.422 395.855 220.338 390.637 217.927 385.592C217.688 388.802 216.767 396.567 215.601 399.309C213.952 399.532 211.727 398.616 210.025 398.345C211.808 390.679 212.877 382.654 214.165 374.881Z"/>
	<path fill="#303C68" d="M182.121 65.4827C183.423 66.7097 184.283 69.5807 184.898 71.2251C181.857 72.3319 179 73.9918 175.965 75.1517L177.358 79.1009C179.892 77.6496 182.851 76.8058 185.122 74.9351C185.197 74.8732 185.27 74.8092 185.344 74.7463L185.667 74.8363C186.625 76.6959 187.51 78.5586 188.354 80.4725C185.543 81.2938 182.584 82.9329 179.981 84.2986C180.616 85.6245 181.221 86.9495 181.772 88.3129C184.867 86.9482 188.418 85.6134 191.154 83.6164L192.365 86.3852L193.793 89.2299L178.691 96.4263C175.357 88.3367 171.244 80.5077 167.637 72.5281C171.645 70.8283 178.829 68.0168 182.121 65.4827Z"/>
	<path fill="#303C68" d="M343.924 80.6684C347.41 84.107 353.039 87.5849 357.176 90.3348C356.021 92.0831 354.77 93.7494 353.511 95.4224C351.041 93.1881 348.102 91.3069 345.472 89.238C344.767 90.3892 343.907 91.4444 343.089 92.517C345.546 94.3952 348.126 96.1447 350.646 97.9403C349.431 99.5871 348.197 101.223 347.059 102.924C345.953 101.835 341.14 97.7251 339.794 97.6661C339.441 97.6506 339.165 98.1183 338.941 98.3646L337.079 100.876C339.722 103.108 342.74 104.928 345.517 107.001C344.363 108.59 343.13 110.16 342.198 111.892C337.716 108.754 333.237 104.858 328.456 102.265C333.69 95.1396 338.92 87.9569 343.924 80.6684Z"/>
	<path fill="#303C68" d="M370.179 102.162C372.285 103.615 379.329 111.823 381.56 114.226Q379.202 116.287 376.869 118.376C375.187 115.566 372.448 113.235 370.339 110.72L367.288 113.497C369.379 115.717 371.484 117.98 373.769 120.001C372.338 121.484 370.816 122.897 369.344 124.341C367.477 122.181 365.578 119.623 363.303 117.893C362.639 117.841 362.623 117.973 362.088 118.39C361.41 119.188 360.483 119.846 359.678 120.516C362.071 123 364.376 125.554 366.898 127.91Q364.743 130.14 362.547 132.33C359.956 128.818 354.313 123.1 351.041 120.06C353.63 118.03 356.006 115.558 358.411 113.305Q364.36 107.802 370.179 102.162Z"/>
	<path fill="#303C68" d="M404.655 164.767Q404.882 164.739 405.11 164.72Q405.521 164.684 405.934 164.69Q406.347 164.696 406.757 164.744Q407.167 164.792 407.57 164.882Q407.973 164.971 408.365 165.101Q408.757 165.231 409.134 165.399Q409.51 165.568 409.868 165.775Q410.226 165.981 410.561 166.222Q410.895 166.464 411.204 166.738C413.145 168.466 414.243 171.06 414.405 173.631C414.609 176.875 413.419 179.332 411.316 181.685C409.743 180.207 408.101 178.792 406.493 177.351C407.338 176.504 408.062 175.829 408.212 174.577C408.321 173.676 408.074 172.64 407.446 171.963C406.911 171.386 406.394 171.347 405.651 171.362C402.907 172.841 405.74 180.761 401.868 184.781C400.06 186.659 397.715 187.08 395.235 187.099C393.956 186.655 392.873 186.211 391.8 185.346C389.356 183.378 387.939 180.361 387.624 177.272C387.242 173.525 388.577 170.899 390.906 168.098C392.361 169.539 393.952 170.933 395.64 172.093C394.335 173.79 393.733 175.015 393.876 177.233C393.939 178.22 394.168 179.385 394.991 180.034C395.831 180.696 396.808 180.563 397.791 180.399C398.833 179.23 398.233 171.626 399.411 168.929C400.526 166.374 402.23 165.722 404.655 164.767Z"/>
	<path fill="#303C68" d="M152.674 342.22C153.885 342.41 156.512 345.158 157.662 345.979C154.112 353.75 151.817 362.102 148.447 369.96C146.934 368.561 145.455 367.119 143.696 366.029L145.582 361.836L144.332 360.771Q141.753 358.513 139.125 356.312L135.308 358.576Q132.848 356.475 130.321 354.456C137.654 351.257 145.336 345.88 152.674 342.22Z"/>
	<path fill="#FEFEFE" d="M149.259 350.727L149.519 351.018C149.118 352.665 148.762 354.493 147.527 355.718C146.723 355.784 146.485 355.504 145.807 355.094L144.02 353.396L149.259 350.727Z"/>
	<path fill="#303C68" d="M336.79 348.767C337.085 348.993 337.056 348.935 337.237 349.168C338.654 351.002 339.776 353.061 341.072 354.98C342.929 357.73 345.423 360.483 346.678 363.564Q346.867 364.023 346.994 364.504Q347.121 364.984 347.183 365.477Q347.245 365.97 347.242 366.467Q347.238 366.964 347.169 367.456C346.813 370.058 345.176 372.345 343.114 373.904C340.991 375.51 338.17 376.502 335.5 376.06C330.511 375.233 325.333 365.504 322.571 361.489C322.132 360.73 321.602 360.044 321.078 359.342Q323.574 357.726 326.023 356.04C327.541 358.767 333.917 368.629 336.076 370.258C336.614 370.377 337.047 370.469 337.593 370.339C339.476 369.893 340.842 368.305 341.842 366.757C340.881 364.31 334.624 354.997 332.748 353.078C332.465 352.789 332.278 352.576 332.099 352.202C333.007 350.866 335.445 349.665 336.79 348.767Z"/>
	<path fill="#303C68" d="M114.042 286.724C115.09 287.29 116.037 290.503 116.943 291.608C113.531 293.63 103.095 297.267 101.173 299.578C100.746 300.09 100.617 300.725 100.712 301.374C100.993 303.311 102.449 304.707 103.937 305.814C109.386 303.854 114.637 300.988 119.962 298.677Q120.951 301.385 122.435 303.857L120.458 304.745C115.619 306.813 107.034 312.414 101.882 310.828C99.3283 310.042 97.4233 308.078 96.251 305.734C95.0819 303.397 94.6195 300.497 95.5114 297.996C95.9813 296.678 96.7923 295.598 97.8689 294.715C101.188 291.994 109.832 288.726 114.042 286.724Z"/>
	<path fill="#303C68" d="M371.203 310.069C373.056 310.72 374.685 312.107 376.228 313.293C374.07 315.259 372.31 318.266 370.516 320.608C371.654 321.326 372.791 321.91 374.016 322.464C375.317 320.142 376.858 317.839 378.447 315.704L383.142 318.991C381.193 320.699 379.546 323.453 377.951 325.533C379.084 326.404 380.295 327.183 381.478 327.983C383.392 325.574 385.043 322.892 386.712 320.308C387.708 320.888 388.667 321.544 389.635 322.168L391.539 323.389C388.257 327.013 385.446 331.632 382.861 335.778C375.939 331.656 369.362 326.648 362.704 322.087C365.472 319.651 369.223 313.372 371.203 310.069Z"/>
	<path fill="#303C68" d="M387.114 288.047C387.517 288.108 387.465 288.182 387.699 288.491C387.646 290.092 388.344 292.05 388.159 293.396C387.139 293.69 386.191 294.15 385.366 294.826C384.493 295.541 383.856 296.29 383.77 297.438C383.972 298.04 384.139 298.222 384.65 298.595C387.385 299.217 391.104 292.873 394.611 292.051C396.471 291.615 398.394 291.787 399.998 292.887C401.607 293.991 402.625 295.772 402.93 297.682C403.37 300.434 402.442 303.388 400.804 305.604C398.881 308.204 396.425 309.416 393.294 309.864L392.947 309.539C392.54 307.875 392.481 306.064 392.442 304.354C393.771 303.758 395.116 303.145 396.231 302.192C396.954 301.574 397.857 300.616 397.8 299.586C397.754 298.747 397.149 298.254 396.554 297.765C393.755 297.151 390.387 303.323 386.738 304.378C385.043 304.868 383.379 304.511 381.899 303.593C380.147 302.507 378.747 300.861 378.354 298.801C377.934 296.607 378.711 294.259 379.934 292.44C381.75 289.738 384.027 288.663 387.114 288.047Z"/>
	<path fill="#303C68" d="M350.024 336.919C351.529 337.613 361.221 347.855 363.245 349.834C365.463 347.804 367.499 344.914 370.045 343.328C371.228 344.672 372.58 345.888 373.868 347.132C372.45 348.296 371.156 349.661 369.835 350.935C367.58 353.232 365.342 355.546 362.989 357.744C360.349 354.768 357.241 352.054 354.414 349.245C351.663 346.512 348.92 343.287 345.837 340.949C347.348 339.783 348.676 338.272 350.024 336.919Z"/>
	<path fill="#303C68" d="M100.04 136.415C102.398 138.361 105.4 139.839 108.051 141.368Q115.437 145.547 122.718 149.906C121.496 151.558 120.386 153.476 119.53 155.343C111.794 151.065 104.258 146.392 96.5718 142.019C97.9669 140.328 98.9964 138.334 100.04 136.415Z"/>
	<path fill="#303C68" d="M283.379 56.3895L289.504 57.6686C288.752 62.1545 287.654 66.6093 286.674 71.0507C285.778 75.1137 285 79.2541 283.879 83.2605C282.003 82.779 279.874 82.7753 278.12 81.9266C277.767 79.9461 282.623 59.8967 283.379 56.3895Z"/>
</svg>
